# xmcd CD database file
#
# Track frame offsets:
#	150
#	12895
#	25404
#	39629
#	50041
#	63749
#	75941
#	85382
#	95612
#	109452
#	122970
#	135287
#	145899
#	157344
#	168265
#	182539
#	194360
#	207192
#	217645
#	229047
#
# Disc length: 3197 seconds
#
# Revision: 1
# Processed by: cddbd v1.5.2PL0 Copyright (c) Steve Scherf et al.
# Submitted via: CDex 1.70beta2
#
DISCID=170c7b14
DTITLE=Lefty Frizzell - Give Me More, More, More [CD3 - Run' Em Off)
DYEAR=2007
DGENRE=Country
TTITLE0=Before You Go Make Sure You Know
TTITLE1=Two Friends of Mine In Love
TTITLE2=Hopeless Love
TTITLE3=Then I'll Come Back To You
TTITLE4=The Tragic Letter (The Letter That You Left)
TTITLE5=Two Hearts Broken Now
TTITLE6=You Can Always Count on Me
TTITLE7=I've Been Away Too Long
TTITLE8=Run 'Em Off
TTITLE9=The Darkest Moment (Is Just Before the Light of Day)
TTITLE10=You're Too Late
TTITLE11=My Little Her and Him
TTITLE12=I Love You Mostly
TTITLE13=Mama!
TTITLE14=Making Believe
TTITLE15=Moonlight Darling and You
TTITLE16=I'll Sit Alone and Cry
TTITLE17=A Forest Fire (Is in Your Heart)
TTITLE18=Sweet Lies
TTITLE19=Your Tomorows Will Never Come
EXTD=YEAR: 2007
EXTT0=
EXTT1=
EXTT2=
EXTT3=
EXTT4=
EXTT5=
EXTT6=
EXTT7=
EXTT8=
EXTT9=
EXTT10=
EXTT11=
EXTT12=
EXTT13=
EXTT14=
EXTT15=
EXTT16=
EXTT17=
EXTT18=
EXTT19=
PLAYORDER=
